<svg width="27" height="27" viewBox="0 0 27 27" fill="none" xmlns="http://www.w3.org/2000/svg">
<path d="M18.205 8.49023C18.205 8.36133 18.0996 8.25586 17.9707 8.25586L16.0371 8.26465L13.125 11.7363L10.2158 8.26758L8.2793 8.25879C8.15039 8.25879 8.04492 8.36133 8.04492 8.49316C8.04492 8.54883 8.06543 8.60156 8.10059 8.64551L11.9121 13.1865L8.10059 17.7246C8.06518 17.7675 8.04554 17.8213 8.04492 17.877C8.04492 18.0059 8.15039 18.1113 8.2793 18.1113L10.2158 18.1025L13.125 14.6309L16.0342 18.0996L17.9677 18.1084C18.0966 18.1084 18.2021 18.0059 18.2021 17.874C18.2021 17.8184 18.1816 17.7656 18.1465 17.7217L14.3408 13.1836L18.1523 8.64258C18.1875 8.60156 18.205 8.5459 18.205 8.49023Z" fill="#353535"/>
<path d="M13.125 0C5.87695 0 0 5.87695 0 13.125C0 20.373 5.87695 26.25 13.125 26.25C20.373 26.25 26.25 20.373 26.25 13.125C26.25 5.87695 20.373 0 13.125 0ZM13.125 24.0234C7.10742 24.0234 2.22656 19.1426 2.22656 13.125C2.22656 7.10742 7.10742 2.22656 13.125 2.22656C19.1426 2.22656 24.0234 7.10742 24.0234 13.125C24.0234 19.1426 19.1426 24.0234 13.125 24.0234Z" fill="#353535"/>
</svg>
