<svg width="25" height="25" viewBox="0 0 25 25" fill="none" xmlns="http://www.w3.org/2000/svg">
<path d="M23.4375 10.7156H4.90625L10.5781 2.93054C10.8433 2.5659 10.9709 2.0958 10.9328 1.62366C10.8948 1.15151 10.6941 0.715991 10.375 0.412913C10.0559 0.109836 9.64454 -0.0359758 9.23137 0.00755557C8.8182 0.0510869 8.43709 0.280396 8.17187 0.645036L0.359375 11.3584C0.306814 11.4436 0.259811 11.5331 0.21875 11.6262C0.21875 11.7155 0.21875 11.769 0.109375 11.8583C0.0385526 12.063 0.0014705 12.281 0 12.5011C0.0014705 12.7213 0.0385526 12.9392 0.109375 13.1439C0.109375 13.2332 0.109375 13.2868 0.21875 13.376C0.259811 13.4691 0.306814 13.5587 0.359375 13.6439L8.17187 24.3572C8.31878 24.5588 8.50275 24.7208 8.7107 24.8319C8.91864 24.943 9.14545 25.0004 9.375 25C9.74008 25.0008 10.0939 24.8555 10.375 24.5893C10.5332 24.4394 10.664 24.2553 10.7599 24.0476C10.8557 23.8398 10.9148 23.6125 10.9337 23.3787C10.9525 23.1448 10.9308 22.909 10.8698 22.6847C10.8088 22.4604 10.7097 22.2521 10.5781 22.0717L4.90625 14.2867H23.4375C23.8519 14.2867 24.2493 14.0985 24.5424 13.7637C24.8354 13.4288 25 12.9747 25 12.5011C25 12.0276 24.8354 11.5734 24.5424 11.2385C24.2493 10.9037 23.8519 10.7156 23.4375 10.7156Z" fill="#353535"/>
</svg>
