<svg width="30" height="28" viewBox="0 0 30 28" fill="none" xmlns="http://www.w3.org/2000/svg">
<path d="M26.25 27.9307H3.75C2.71484 27.9307 1.83105 27.5957 1.09863 26.9256C0.366211 26.2556 0 25.4471 0 24.5002V3.9174C0 2.97045 0.366211 2.16197 1.09863 1.49196C1.83105 0.821945 2.71484 0.486938 3.75 0.486938H26.25C27.2852 0.486938 28.1689 0.821945 28.9014 1.49196C29.6338 2.16197 30 2.97045 30 3.9174V24.5002C30 25.4471 29.6338 26.2556 28.9014 26.9256C28.1689 27.5957 27.2852 27.9307 26.25 27.9307ZM24.0234 20.9357L20.8008 17.9877C21.9336 16.6119 22.5 15.0664 22.5 13.3512C22.5 11.225 21.6748 9.40704 20.0244 7.89728C18.374 6.38752 16.3867 5.63264 14.0625 5.63264C11.7383 5.63264 9.75098 6.38752 8.10059 7.89728C6.4502 9.40704 5.625 11.225 5.625 13.3512C5.625 15.4774 6.4502 17.2953 8.10059 18.8051C9.75098 20.3149 11.7383 21.0697 14.0625 21.0697C15.9375 21.0697 17.627 20.5516 19.1309 19.5153L22.3535 22.4634C22.5879 22.6778 22.8662 22.785 23.1885 22.785C23.5107 22.785 23.7891 22.6778 24.0234 22.4634C24.2578 22.249 24.375 21.9944 24.375 21.6995C24.375 21.4047 24.2578 21.1501 24.0234 20.9357ZM14.0625 19.3545C12.2461 19.3545 10.6982 18.7694 9.41895 17.5991C8.13965 16.4288 7.5 15.0128 7.5 13.3512C7.5 11.6896 8.13965 10.2736 9.41895 9.1033C10.6982 7.93301 12.2461 7.34787 14.0625 7.34787C15.8789 7.34787 17.4268 7.93301 18.7061 9.1033C19.9854 10.2736 20.625 11.6896 20.625 13.3512C20.625 15.0128 19.9854 16.4288 18.7061 17.5991C17.4268 18.7694 15.8789 19.3545 14.0625 19.3545Z" fill="#CBCBCB"/>
</svg>
